<?xml version="1.0" encoding="UTF-8" standalone="no"?>
<svg width="512px" height="463px" viewBox="0 0 512 463" version="1.1" xmlns="http://www.w3.org/2000/svg" xmlns:xlink="http://www.w3.org/1999/xlink">
    <!-- Generator: Sketch 41 (35326) - http://www.bohemiancoding.com/sketch -->
    <title>Street Illastration</title>
    <desc>Created with Sketch.</desc>
    <defs></defs>
    <g id="Page-1" stroke="none" stroke-width="1" fill="none" fill-rule="evenodd">
        <g id="RentSmart-search" transform="translate(-761.000000, -299.000000)">
            <g id="Street-Illastration" transform="translate(762.000000, 300.000000)">
                <g id="Page-1" transform="translate(137.000000, 0.000000)">
                    <polygon id="Fill-1" fill="#FFFFFF" points="19.236 458.837013 358.2888 458.837013 358.2888 28.9853107 19.236 28.9853107"></polygon>
                    <polygon id="Stroke-2" stroke="#081F2F" stroke-width="3" points="19.236 458.837013 358.2888 458.837013 358.2888 28.9853107 19.236 28.9853107"></polygon>
                    <polygon id="Fill-4" fill="#FFFFFF" points="258.2988 111.610104 312.1008 111.610104 312.1008 57.3714047 258.2988 57.3714047"></polygon>
                    <polygon id="Stroke-5" stroke="#081F2F" stroke-width="3" points="258.2988 111.610104 312.1008 111.610104 312.1008 57.3714047 258.2988 57.3714047"></polygon>
                    <polygon id="Fill-6" fill="#FFFFFF" points="258.2988 237.829112 312.1008 237.829112 312.1008 183.590413 258.2988 183.590413"></polygon>
                    <polygon id="Stroke-7" stroke="#081F2F" stroke-width="3" points="258.2988 237.829112 312.1008 237.829112 312.1008 183.590413 258.2988 183.590413"></polygon>
                    <polygon id="Fill-8" fill="#FFFFFF" points="258.2988 369.116295 312.1008 369.116295 312.1008 314.877595 258.2988 314.877595"></polygon>
                    <polygon id="Stroke-9" stroke="#081F2F" stroke-width="3" points="258.2988 369.116295 312.1008 369.116295 312.1008 314.877595 258.2988 314.877595"></polygon>
                    <polygon id="Fill-10" fill="#FFFFFF" points="366.40956 27.971436 6.03996 27.971436 0.96396 0.59921671 371.48556 0.59921671"></polygon>
                    <polygon id="Stroke-11" stroke="#081F2F" stroke-width="3" points="366.40956 27.971436 6.03996 27.971436 0.96396 0.59921671 371.48556 0.59921671"></polygon>
                    <polygon id="Fill-13" fill="#FFFFFF" points="89.7876 319.94577 212.6184 319.94577 212.6184 242.39035 89.7876 242.39035"></polygon>
                    <polygon id="Stroke-14" stroke="#081F2F" stroke-width="3" points="89.7876 319.94577 212.6184 319.94577 212.6184 242.39035 89.7876 242.39035"></polygon>
                    <polygon id="Fill-15" fill="#FFFFFF" points="89.7876 185.616963 212.6184 185.616963 212.6184 108.061543 89.7876 108.061543"></polygon>
                    <polygon id="Stroke-16" stroke="#081F2F" stroke-width="3" points="89.7876 185.616963 212.6184 185.616963 212.6184 108.061543 89.7876 108.061543"></polygon>
                    <polygon id="Fill-17" fill="#FFFFFF" points="19.236 458.837013 358.2888 458.837013 358.2888 431.464794 19.236 431.464794"></polygon>
                    <polygon id="Stroke-18" stroke="#081F2F" stroke-width="3" points="19.236 458.837013 358.2888 458.837013 358.2888 431.464794 19.236 431.464794"></polygon>
                    <polygon id="Fill-20" fill="#FFFFFF" points="61.3644 455.288452 89.7876 455.288452 89.7876 29.9991854 61.3644 29.9991854"></polygon>
                    <polygon id="Stroke-21" stroke="#081F2F" stroke-width="3" points="61.3644 459.850888 89.7876 459.850888 89.7876 29.9991854 61.3644 29.9991854"></polygon>
                    <polygon id="Fill-23" fill="#FFFFFF" points="89.7876 430.5473 212.6184 430.5473 212.6184 379.635452 89.7876 379.635452"></polygon>
                    <polygon id="Stroke-24" stroke="#081F2F" stroke-width="2.431" points="89.7876 431.5473 212.6184 431.5473 212.6184 380.635452 89.7876 380.635452"></polygon>
                    <path d="M112.62768,428.929508 L112.62768,378.240568 L112.62768,428.929508 Z" id="Fill-25" fill="#FFFFFF"></path>
                    <path d="M112.62792,380.239729 L112.62792,430.929867" id="Stroke-26" stroke="#081F2F" stroke-width="3"></path>
                    <path d="M138.00552,428.929508 L138.00552,378.240568 L138.00552,428.929508 Z" id="Fill-27" fill="#FFFFFF"></path>
                    <path d="M138.006,380.239729 L138.006,430.929867" id="Stroke-28" stroke="#081F2F" stroke-width="3"></path>
                    <path d="M163.38444,428.929508 L163.38444,378.240568 L163.38444,428.929508 Z" id="Fill-29" fill="#FFFFFF"></path>
                    <path d="M163.3842,380.239729 L163.3842,430.929867" id="Stroke-30" stroke="#081F2F" stroke-width="3"></path>
                    <path d="M89.78784,294.600821 L211.60344,294.600821 L89.78784,294.600821 Z" id="Fill-31" fill="#FFFFFF"></path>
                    <path d="M89.78748,294.60118 L211.60308,294.60118" id="Stroke-32" stroke="#081F2F" stroke-width="3"></path>
                    <path d="M89.78784,162.806821 L211.60344,162.806821 L89.78784,162.806821 Z" id="Fill-33" fill="#FFFFFF"></path>
                    <path d="M89.78748,162.80694 L211.60308,162.80694" id="Stroke-34" stroke="#081F2F" stroke-width="3"></path>
                    <polygon id="Fill-35" fill="#FFFFFF" points="185.2092 455.288452 212.6172 455.288452 212.6172 29.9991854 185.2092 29.9991854"></polygon>
                    <polygon id="Stroke-36" stroke="#081F2F" stroke-width="3" points="185.2092 459.850888 212.6172 459.850888 212.6172 29.9991854 185.2092 29.9991854"></polygon>
                    <path d="M112.62768,160.272134 L112.62768,109.583194 L112.62768,160.272134 Z" id="Fill-38" fill="#FFFFFF"></path>
                    <path d="M112.62792,109.582475 L112.62792,160.272613" id="Stroke-39" stroke="#081F2F" stroke-width="3"></path>
                    <path d="M138.00552,160.272134 L138.00552,109.583194 L138.00552,160.272134 Z" id="Fill-40" fill="#FFFFFF"></path>
                    <path d="M138.006,109.582475 L138.006,160.272613" id="Stroke-41" stroke="#081F2F" stroke-width="3"></path>
                    <polygon id="Fill-42" fill="#FFFFFF" points="61.3644 49.7685431 213.126 49.7685431 213.126 29.9991854 61.3644 29.9991854"></polygon>
                    <polygon id="Stroke-43" stroke="#081F2F" stroke-width="3" points="61.3644 49.7685431 213.126 49.7685431 213.126 29.9991854 61.3644 29.9991854"></polygon>
                    <path d="M163.38444,160.272134 L163.38444,109.583194 L163.38444,160.272134 Z" id="Fill-44" fill="#FFFFFF"></path>
                    <path d="M163.3842,109.582475 L163.3842,160.272613" id="Stroke-45" stroke="#081F2F" stroke-width="3"></path>
                    <path d="M112.62768,292.067213 L112.62768,241.377074 L112.62768,292.067213 Z" id="Fill-46" fill="#FFFFFF"></path>
                    <path d="M112.62792,241.376595 L112.62792,292.066733" id="Stroke-47" stroke="#081F2F" stroke-width="3"></path>
                    <path d="M138.00552,292.067213 L138.00552,241.377074 L138.00552,292.067213 Z" id="Fill-48" fill="#FFFFFF"></path>
                    <path d="M138.006,241.376595 L138.006,292.066733" id="Stroke-49" stroke="#081F2F" stroke-width="3"></path>
                    <path d="M163.38444,292.067213 L163.38444,241.377074 L163.38444,292.067213 Z" id="Fill-50" fill="#FFFFFF"></path>
                    <path d="M163.3842,241.376595 L163.3842,292.066733" id="Stroke-51" stroke="#081F2F" stroke-width="3"></path>
                </g>
                <g id="Page-1" transform="translate(0.000000, 257.000000)">
                    <polygon id="Fill-1" fill="#FFFFFF" points="81.4033356 202.361279 42.8044315 202.361279 47.2224452 145.772523 24.5165548 94.2706667 42.9061438 94.2706667 62.1020342 131.398919 76.8114863 94.2706667 99.6875137 94.2706667 75.6390205 146.605802"></polygon>
                    <g id="Group-8" transform="translate(0.000000, 0.145063)">
                        <polygon id="Stroke-2" stroke="#081F2F" stroke-width="3" points="81.4033356 202.216216 42.8044315 202.216216 47.2224452 145.627459 24.5165548 94.1256036 42.9061438 94.1256036 62.1020342 131.253856 76.8114863 94.1256036 99.6875137 94.1256036 75.6390205 146.460739"></polygon>
                        <path d="M43.1360137,105.384895 C45.702863,106.882571 48.502726,108.066607 51.5263562,108.825652 C59.6577945,110.865238 67.8206712,109.582841 74.657589,105.882265 C76.6382055,107.645328 79.053411,108.975977 81.7996438,109.666355 C90.9186164,111.954625 100.161493,106.390769 102.441699,97.2395441 C102.589644,96.6438144 102.700603,96.0499405 102.783822,95.4542108 C116.557521,96.4600847 129.471288,87.4554721 132.936904,73.5514 C136.814918,57.9863369 127.38526,42.2115622 111.875055,38.3198324 C111.80663,38.3031297 111.736356,38.2957063 111.667932,38.2790036 C111.980466,37.5552198 112.252315,36.8054541 112.450192,36.0167153 C114.388274,28.2332559 109.67437,20.3458685 101.918342,18.4009315 C98.4323836,17.5249676 94.9316301,18.0093459 91.9505342,19.5033099 C87.7100548,10.9125532 79.9003973,4.16466126 69.9085479,1.65554414 C54.6387534,-2.17494234 39.2302603,5.12228288 32.0752603,18.4046432 C24.5411507,17.0721387 17.1549863,21.780445 15.2705342,29.3430577 C14.3310822,33.1141568 14.9432055,36.9019586 16.6797123,40.0550577 C9.48587671,43.2230036 3.76779452,49.5570396 1.71505479,57.7970396 C-1.24939726,69.6949315 4.36512329,81.7004631 14.6103288,87.3199946 C13.7115616,88.7749856 13.0125205,90.3895802 12.5760822,92.1396523 C10.3162192,101.211076 15.8123836,110.404986 24.8518356,112.672841 C32.0604658,114.482301 39.3338219,111.331058 43.1360137,105.384895" id="Fill-4" fill="#FFFFFF"></path>
                        <path d="M43.1360137,105.384895 C45.702863,106.882571 48.502726,108.066607 51.5263562,108.825652 C59.6577945,110.865238 67.8206712,109.582841 74.657589,105.882265 C76.6382055,107.645328 79.053411,108.975977 81.7996438,109.666355 C90.9186164,111.954625 100.161493,106.390769 102.441699,97.2395441 C102.589644,96.6438144 102.700603,96.0499405 102.783822,95.4542108 C116.557521,96.4600847 129.471288,87.4554721 132.936904,73.5514 C136.814918,57.9863369 127.38526,42.2115622 111.875055,38.3198324 C111.80663,38.3031297 111.736356,38.2957063 111.667932,38.2790036 C111.980466,37.5552198 112.252315,36.8054541 112.450192,36.0167153 C114.388274,28.2332559 109.67437,20.3458685 101.918342,18.4009315 C98.4323836,17.5249676 94.9316301,18.0093459 91.9505342,19.5033099 C87.7100548,10.9125532 79.9003973,4.16466126 69.9085479,1.65554414 C54.6387534,-2.17494234 39.2302603,5.12228288 32.0752603,18.4046432 C24.5411507,17.0721387 17.1549863,21.780445 15.2705342,29.3430577 C14.3310822,33.1141568 14.9432055,36.9019586 16.6797123,40.0550577 C9.48587671,43.2230036 3.76779452,49.5570396 1.71505479,57.7970396 C-1.24939726,69.6949315 4.36512329,81.7004631 14.6103288,87.3199946 C13.7115616,88.7749856 13.0125205,90.3895802 12.5760822,92.1396523 C10.3162192,101.211076 15.8123836,110.404986 24.8518356,112.672841 C32.0604658,114.482301 39.3338219,111.331058 43.1360137,105.384895 Z" id="Stroke-6" stroke="#081F2F" stroke-width="3"></path>
                    </g>
                </g>
                <path d="M42.5,459.5 L494.5,459.5" id="Line" stroke="#091F2F" stroke-width="3" stroke-linecap="square"></path>
            </g>
        </g>
    </g>
</svg>