<?xml version="1.0" encoding="utf-8"?>
<!-- Generator: Adobe Illustrator 18.1.1, SVG Export Plug-In . SVG Version: 6.00 Build 0)  -->
<svg version="1.1" id="Layer_3_copy_2" xmlns="http://www.w3.org/2000/svg" xmlns:xlink="http://www.w3.org/1999/xlink" x="0px"
	 y="0px" viewBox="0 0 2800 2800" enable-background="new 0 0 2800 2800" xml:space="preserve">
<path fill="#FFFFFF" d="M1617.2,1275.4l-83.3-76.5c-2.6-2.4-6.4-3-9.7-1.6c-3.3,1.4-5.4,4.7-5.4,8.2c0,13.3-20.7,25.1-44.3,25.1
	c-23.6,0-44.3-11.7-44.3-25.1c0-5-4-9-9-9h-0.3c-5,0-9,4-9,9c0,13.3-20.7,25.1-44.3,25.1c-23.6,0-44.3-11.7-44.3-25.1
	c0-3.6-2.1-6.8-5.4-8.2c-3.3-1.4-7.1-0.8-9.7,1.6l-83.3,76.5c-2.2,2-3.2,5-2.8,7.9c0.4,2.9,2.3,5.5,5,6.8c21.2,10.3,36,40.9,36,74.3
	c0,12.9-2.2,25.6-6.2,36.9c-1.9,3.4-9.8,18.4-15.9,38.8c-9.3,30.7-10.1,59.4-2.5,82.8c8.8,27,28.6,47.5,58.6,60.9
	c0.1,0,0.2,0.1,0.2,0.1c12.6,5.2,27.9,9.5,42.6,13.7c31.5,9,67.3,19.1,72.3,37.5c1.1,3.9,4.6,6.6,8.7,6.6h0.2c4.1,0,7.6-2.7,8.7-6.6
	c5-18.4,40.7-28.6,72.3-37.5c14.7-4.2,30-8.5,42.6-13.7c0.1,0,0.2-0.1,0.2-0.1c30.1-13.4,49.8-33.9,58.6-60.9
	c17.6-53.6-14.2-114.1-18.4-121.6c-4.1-11.3-6.2-24.1-6.2-36.9c0-33.4,14.8-64,36-74.3c2.7-1.3,4.5-3.8,5-6.8
	C1620.5,1280.3,1619.4,1277.4,1617.2,1275.4z M1505.7,1455.8c1.3-0.3,2.6-0.5,4-0.5c8.9,0,16.1,7.2,16.1,16.1s-7.2,16.1-16.1,16.1
	c-8.9,0-16.1-7.2-16.1-16.1c0-0.5,0-0.9,0.1-1.4h-40.5l-21.7,30.7c4.4,2.9,7.3,7.8,7.3,13.4c0,8.9-7.2,16.1-16.1,16.1
	c-8.9,0-16.1-7.2-16.1-16.1c0-5.7,3-10.8,7.5-13.6l-21.6-30.5h-44.5c0,0.5,0.1,0.9,0.1,1.4c0,8.9-7.2,16.1-16.1,16.1
	c-8.9,0-16.1-7.2-16.1-16.1s7.2-16.1,16.1-16.1c2.1,0,4.1,0.4,5.9,1.1l21.8-37.2l-19.8-33.7c-2.4,1.4-5.2,2.2-8.1,2.2
	c-8.9,0-16.1-7.2-16.1-16.1s7.2-16.1,16.1-16.1c8.1,0,14.8,6.1,15.9,13.9h45.2l20.6-29.1c-4.1-2.9-6.8-7.7-6.8-13.1
	c0-8.9,7.2-16.1,16.1-16.1c8.9,0,16.1,7.2,16.1,16.1c0,5.4-2.7,10.2-6.8,13.1l20.6,29.1h40.9c0-8.9,7.2-16.1,16.1-16.1
	c8.9,0,16.1,7.2,16.1,16.1s-7.2,16.1-16.1,16.1c-1.4,0-2.8-0.2-4.2-0.6l-20.7,35.2L1505.7,1455.8z"/>
</svg>
