<?xml version="1.0" encoding="utf-8"?>
<!-- Generator: Adobe Illustrator 21.0.0, SVG Export Plug-In . SVG Version: 6.00 Build 0)  -->
<svg version="1.1" id="Layer_1" xmlns="http://www.w3.org/2000/svg" xmlns:xlink="http://www.w3.org/1999/xlink" x="0px" y="0px"
	 viewBox="0 0 66 66" style="enable-background:new 0 0 66 66;" xml:space="preserve">
<style type="text/css">
	.st0{fill:#FFFFFF;stroke:#000000;stroke-miterlimit:10;}
	.st1{fill:none;stroke:#091F2F;stroke-width:3;stroke-miterlimit:10;}
	.st2{fill:#FFFFFF;stroke:#0C1F2E;stroke-width:2;stroke-miterlimit:10;}
	.st3{fill:#0C1F2E;}
</style>
<title>small-circle-icons</title>
<circle class="st0" cx="32.8" cy="32.9" r="31.9"/>
<circle class="st1" cx="33" cy="33" r="31.4"/>
<rect x="25" y="38.5" class="st2" width="8.4" height="13.6"/>
<rect x="20.3" y="31.7" class="st2" width="24.4" height="7.8"/>
<rect x="16" y="31.2" class="st2" width="5.1" height="20.9"/>
<rect x="44" y="31.2" class="st2" width="5.1" height="20.9"/>
<rect x="10.5" y="16.2" class="st2" width="43.9" height="7.8"/>
<rect x="16.1" y="23.9" class="st2" width="32.8" height="7.8"/>
<rect x="13.5" y="18.5" class="st3" width="3" height="3"/>
<rect x="18.5" y="18.5" class="st3" width="3" height="3"/>
<rect x="23.5" y="18.5" class="st3" width="3" height="3"/>
<rect x="28.5" y="18.5" class="st3" width="3" height="3"/>
<rect x="33.5" y="18.5" class="st3" width="3" height="3"/>
<rect x="43.5" y="18.5" class="st3" width="3" height="3"/>
<rect x="38.5" y="18.5" class="st3" width="3" height="3"/>
<rect x="48.4" y="18.5" class="st3" width="3" height="3"/>
<rect x="18.5" y="26" class="st3" width="3" height="3"/>
<rect x="23.5" y="26" class="st3" width="3" height="3"/>
<rect x="28.5" y="26" class="st3" width="3" height="3"/>
<rect x="33.5" y="26" class="st3" width="3" height="3"/>
<rect x="38.5" y="26" class="st3" width="3" height="3"/>
<rect x="43.5" y="26" class="st3" width="3" height="3"/>
<rect x="28.5" y="34.1" class="st3" width="3" height="3"/>
<rect x="33.5" y="34.1" class="st3" width="3" height="3"/>
<rect x="33.5" y="34.1" class="st3" width="3" height="3"/>
<rect x="38.5" y="34.1" class="st3" width="3" height="3"/>
<rect x="23.5" y="34.1" class="st3" width="3" height="3"/>
<rect x="21.1" y="47" class="st2" width="17.3" height="5"/>
</svg>
