<?xml version="1.0" encoding="utf-8"?>
<!-- Generator: Adobe Illustrator 21.0.0, SVG Export Plug-In . SVG Version: 6.00 Build 0)  -->
<svg version="1.1" id="Layer_1" xmlns="http://www.w3.org/2000/svg" xmlns:xlink="http://www.w3.org/1999/xlink" x="0px" y="0px"
	 viewBox="0 0 66 66" style="enable-background:new 0 0 66 66;" xml:space="preserve">
<style type="text/css">
	.st0{fill:#FFFFFF;stroke:#000000;stroke-miterlimit:10;}
	.st1{fill:none;stroke:#091F2F;stroke-width:3;stroke-miterlimit:10;}
	.st2{fill:#091F2F;}
</style>
<circle class="st0" cx="33.2" cy="33" r="31.9"/>
<g>
	<g>
		<circle id="SVGID_97_" class="st1" cx="33" cy="33" r="31.4"/>
	</g>
</g>
<polygon class="st1" points="40.3,31.8 40.3,20.2 28.4,20.2 28.4,18.2 24.4,18.2 24.4,20.2 21.1,20.2 21.1,49.2 29.5,49.2 
	40.3,49.2 48.7,49.2 48.7,31.8 "/>
<rect x="24.4" y="41.9" class="st2" width="4" height="4"/>
<rect x="33.2" y="41.9" class="st2" width="4" height="4"/>
<rect x="42.1" y="41.9" class="st2" width="4" height="4"/>
<rect x="24.4" y="35.9" class="st2" width="4" height="4"/>
<rect x="33.2" y="35.9" class="st2" width="4" height="4"/>
<rect x="42.1" y="35.9" class="st2" width="4" height="4"/>
<rect x="24.4" y="29.8" class="st2" width="4" height="4"/>
<rect x="33.2" y="29.8" class="st2" width="4" height="4"/>
<rect x="24.4" y="23.8" class="st2" width="4" height="4"/>
<rect x="33.2" y="23.8" class="st2" width="4" height="4"/>
</svg>
